<svg width="1024" height="1024" viewBox="0 0 1024 1024" fill="none" xmlns="http://www.w3.org/2000/svg">
<path d="M545.008 191.828L6.32129 333.753L175.43 975.617L714.116 833.692L545.008 191.828Z" fill="#D7DAE6"/>
<path d="M1022.31 162.578L571.803 44.2217L415.301 639.924L865.807 758.28L1022.31 162.578Z" fill="#D7DAE6"/>
<path d="M776.921 119.796H219.853V904.673H776.921V119.796Z" fill="#024AFF"/>
<path d="M570.476 253.802H98.2354V483.38H570.476V253.802Z" fill="white"/>
<path d="M278.124 328.642H151.704V353.926H278.124V328.642Z" fill="#024AFF"/>
<path d="M233.877 379.209H151.704V404.493H233.877V379.209Z" fill="#024AFF"/>
<path d="M901.254 541.153H429.013V770.732H901.254V541.153Z" fill="#FFBE19"/>
<path d="M668.899 512.262C668.899 513.463 668.836 514.664 668.836 515.865H694.12C694.12 514.664 694.183 513.463 694.183 512.262C694.183 439.697 654.488 376.298 595.766 342.48V372.379C639.949 403.225 668.899 454.425 668.899 512.262Z" fill="white"/>
<path d="M403.73 654.049C357.966 623.455 327.815 571.307 327.815 512.269C327.815 511.068 327.878 509.867 327.878 508.666H302.594C302.594 509.867 302.531 511.068 302.531 512.269C302.531 585.972 343.428 650.256 403.73 683.631V654.049Z" fill="#FFBD14"/>
<path d="M865.976 619.407H739.557V644.691H865.976V619.407Z" fill="#024AFF"/>
<path d="M865.976 669.975H783.803V695.259H865.976V669.975Z" fill="#024AFF"/>
<path d="M453.797 304.9H522.367V408.135H453.797V465.023H423.456V408.135H353.976V304.9H423.456V271.753L453.797 272.815V304.9ZM384.089 334.862V378.628H423.38V334.862H384.089ZM453.797 378.552H492.254V334.786H453.797V378.552Z" fill="#024AFF"/>
<path d="M549.876 695.334L538.422 728.861H499.358L553.972 581.48H604.489L658.647 728.861H618.749L607.523 695.334H549.952H549.876ZM597.207 664.69L580.217 613.945H577.638L560.192 664.69H597.131H597.207Z" fill="#024AFF"/>
</svg>
