<svg width="3033" height="1024" viewBox="0 0 3033 1024" fill="none" xmlns="http://www.w3.org/2000/svg">
<path d="M545.97 191.828L7.28418 333.753L176.393 975.617L715.079 833.692L545.97 191.828Z" fill="#D7DAE6"/>
<path d="M1023.27 162.578L572.766 44.2217L416.264 639.924L866.77 758.28L1023.27 162.578Z" fill="#D7DAE6"/>
<path d="M777.884 119.796H220.815V904.673H777.884V119.796Z" fill="#024AFF"/>
<path d="M571.439 253.802H99.1982V483.38H571.439V253.802Z" fill="white"/>
<path d="M279.087 328.642H152.667V353.926H279.087V328.642Z" fill="#024AFF"/>
<path d="M234.84 379.209H152.667V404.493H234.84V379.209Z" fill="#024AFF"/>
<path d="M902.217 541.153H429.976V770.732H902.217V541.153Z" fill="#FFBE19"/>
<path d="M669.862 512.262C669.862 513.463 669.799 514.664 669.799 515.865H695.083C695.083 514.664 695.146 513.463 695.146 512.262C695.146 439.697 655.45 376.298 596.729 342.48V372.379C640.912 403.225 669.862 454.425 669.862 512.262Z" fill="white"/>
<path d="M404.693 654.049C358.929 623.455 328.778 571.307 328.778 512.269C328.778 511.068 328.841 509.867 328.841 508.666H303.557C303.557 509.867 303.494 511.068 303.494 512.269C303.494 585.972 344.391 650.256 404.693 683.631V654.049Z" fill="#FFBD14"/>
<path d="M866.938 619.407H740.519V644.691H866.938V619.407Z" fill="#024AFF"/>
<path d="M866.938 669.975H784.766V695.259H866.938V669.975Z" fill="#024AFF"/>
<path d="M454.76 304.9H523.33V408.135H454.76V465.023H424.419V408.135H354.938V304.9H424.419V271.753L454.76 272.815V304.9ZM385.052 334.862V378.628H424.343V334.862H385.052ZM454.76 378.552H493.216V334.786H454.76V378.552Z" fill="#024AFF"/>
<path d="M550.839 695.334L539.385 728.861H500.321L554.935 581.48H605.452L659.61 728.861H619.712L608.486 695.334H550.914H550.839ZM598.17 664.69L581.179 613.945H578.6L561.154 664.69H598.094H598.17Z" fill="#024AFF"/>
<path d="M1189.6 740.358V305.79H1307.38C1338.99 305.79 1361.95 313.527 1376.27 329C1390.76 344.309 1398 369.659 1398 405.05V424.062C1398 444.474 1394.3 461.017 1386.89 473.692C1379.65 486.367 1368.54 494.679 1353.56 498.63C1373.14 503.568 1386.23 515.173 1392.81 533.445C1399.56 551.552 1402.94 573.692 1402.94 599.865C1402.94 628.013 1400.3 652.622 1395.04 673.692C1389.77 694.762 1380.22 711.14 1366.4 722.828C1352.57 734.515 1332.9 740.358 1307.38 740.358H1189.6ZM1274.54 469.494H1292.32C1300.39 469.494 1305.57 466.367 1307.88 460.111C1310.18 453.856 1311.33 446.367 1311.33 437.642V393.939C1311.33 379.947 1305.16 372.951 1292.81 372.951H1274.54V469.494ZM1283.19 663.815C1305.74 663.815 1317.01 653.116 1317.01 631.716V577.395C1317.01 565.05 1315.12 555.338 1311.33 548.26C1307.71 541.017 1300.8 537.395 1290.59 537.395H1274.54V663.321C1278.16 663.651 1281.05 663.815 1283.19 663.815ZM1497.51 744.309C1476.93 744.309 1461.21 739.535 1450.35 729.988C1439.65 720.441 1432.32 707.354 1428.37 690.729C1424.42 674.103 1422.44 655.256 1422.44 634.186C1422.44 611.634 1424.67 593.198 1429.11 578.877C1433.56 564.391 1441.13 552.539 1451.83 543.321C1462.69 534.103 1477.59 526.284 1496.52 519.865L1551.33 501.099V463.074C1551.33 443.157 1544.83 433.198 1531.83 433.198C1519.98 433.198 1514.05 441.264 1514.05 457.395V479.618H1428.12C1427.96 478.301 1427.88 476.655 1427.88 474.679C1427.88 472.539 1427.88 470.153 1427.88 467.519C1427.88 430.646 1436.52 404.556 1453.8 389.247C1471.25 373.774 1498.82 366.037 1536.52 366.037C1556.27 366.037 1573.97 369.577 1589.6 376.655C1605.24 383.568 1617.59 393.856 1626.64 407.519C1635.86 421.181 1640.47 438.054 1640.47 458.136V740.358H1552.57V696.408C1548.29 711.881 1541.21 723.733 1531.33 731.963C1521.46 740.194 1510.18 744.309 1497.51 744.309ZM1532.32 675.667C1539.56 675.667 1544.5 672.622 1547.14 666.531C1549.77 660.441 1551.09 653.856 1551.09 646.778V543.568C1538.91 548.507 1529.44 554.762 1522.69 562.334C1515.94 569.741 1512.57 580.688 1512.57 595.173V642.828C1512.57 664.721 1519.15 675.667 1532.32 675.667ZM1822.44 744.309C1807.96 744.309 1796.19 740.77 1787.14 733.692C1778.08 726.449 1770.84 715.502 1765.41 700.852V740.358H1675.53V305.79H1765.41V409.494C1770.84 395.832 1778.33 385.214 1787.88 377.642C1797.59 369.906 1811.42 366.037 1829.36 366.037C1853.56 366.037 1870.59 374.844 1880.47 392.457C1890.51 410.07 1895.53 433.116 1895.53 461.593V643.815C1895.53 662.745 1892.9 679.865 1887.63 695.173C1882.53 710.317 1874.54 722.334 1863.68 731.223C1852.98 739.947 1839.23 744.309 1822.44 744.309ZM1785.9 675.42C1795.28 675.42 1800.96 670.811 1802.94 661.593C1804.91 652.375 1805.9 641.017 1805.9 627.519V482.828C1805.9 469.165 1804.91 457.807 1802.94 448.753C1800.96 439.535 1795.37 434.926 1786.15 434.926C1776.6 434.926 1770.76 439.618 1768.62 449C1766.48 458.218 1765.41 469.494 1765.41 482.828V627.519C1765.41 640.852 1766.48 652.21 1768.62 661.593C1770.76 670.811 1776.52 675.42 1785.9 675.42ZM2032.07 744.309C2005.74 744.309 1984.75 739.371 1969.11 729.494C1953.47 719.618 1942.28 705.379 1935.53 686.778C1928.78 668.177 1925.41 645.79 1925.41 619.618V470.729C1925.41 436.325 1935.28 410.317 1955.04 392.704C1974.79 374.926 2001.95 366.037 2036.52 366.037C2107.63 366.037 2143.19 400.935 2143.19 470.729V497.642C2143.19 530.235 2142.86 552.128 2142.2 563.321H2013.8V634.926C2013.8 641.511 2014.21 648.013 2015.04 654.432C2015.86 660.688 2017.67 665.873 2020.47 669.988C2023.43 674.103 2028.12 676.161 2034.54 676.161C2043.76 676.161 2049.52 672.21 2051.83 664.309C2054.13 656.243 2055.28 645.79 2055.28 632.951V597.395H2143.19V618.383C2143.19 646.037 2139.73 669.247 2132.81 688.013C2126.07 706.614 2114.54 720.688 2098.25 730.235C2082.12 739.618 2060.06 744.309 2032.07 744.309ZM2013.31 519.371H2055.28V469.494C2055.28 456.161 2053.64 446.614 2050.35 440.852C2047.05 434.926 2042.12 431.963 2035.53 431.963C2028.45 431.963 2022.94 434.762 2018.99 440.358C2015.2 445.955 2013.31 455.667 2013.31 469.494V519.371ZM2175.28 740.358V305.79H2265.16V740.358H2175.28ZM2302.2 740.358V305.79H2421.7C2452.98 305.79 2476.52 314.515 2492.32 331.963C2508.12 349.247 2516.02 374.597 2516.02 408.013V611.47C2516.02 652.622 2508.78 684.391 2494.3 706.778C2479.98 729.165 2454.79 740.358 2418.74 740.358H2302.2ZM2389.61 663.568H2404.67C2420.63 663.568 2428.62 655.832 2428.62 640.358V416.161C2428.62 401.675 2426.64 392.375 2422.69 388.26C2418.91 383.98 2411.09 381.84 2399.23 381.84H2389.61V663.568ZM2657.75 744.309C2584.01 744.309 2547.14 706.037 2547.14 629.494V480.852C2547.14 445.955 2556.93 418.136 2576.52 397.395C2596.11 376.49 2623.19 366.037 2657.75 366.037C2692.49 366.037 2719.65 376.49 2739.23 397.395C2758.82 418.136 2768.62 445.955 2768.62 480.852V629.494C2768.62 706.037 2731.66 744.309 2657.75 744.309ZM2657.75 676.161C2665.16 676.161 2670.43 673.527 2673.56 668.26C2676.85 662.828 2678.49 655.996 2678.49 647.766V466.778C2678.49 445.214 2671.58 434.432 2657.75 434.432C2643.93 434.432 2637.01 445.214 2637.01 466.778V647.766C2637.01 655.996 2638.58 662.828 2641.7 668.26C2645 673.527 2650.35 676.161 2657.75 676.161ZM2912.81 744.309C2871.33 744.309 2841.87 733.692 2824.42 712.457C2807.14 691.223 2798.49 660.029 2798.49 618.877V504.803C2798.49 473.856 2801.79 448.095 2808.37 427.519C2814.95 406.943 2826.48 391.552 2842.94 381.346C2859.4 371.14 2882.28 366.037 2911.58 366.037C2931.99 366.037 2950.26 369.659 2966.4 376.902C2982.69 384.144 2995.53 394.762 3004.91 408.753C3014.3 422.745 3018.99 439.865 3018.99 460.111V516.655H2928.86V464.803C2928.86 456.243 2927.63 449.083 2925.16 443.321C2922.69 437.395 2917.34 434.432 2909.11 434.432C2894.63 434.432 2887.38 444.721 2887.38 465.297V644.803C2887.38 652.375 2889.03 659.371 2892.32 665.79C2895.61 672.046 2901.05 675.173 2908.62 675.173C2916.35 675.173 2921.7 672.128 2924.67 666.037C2927.79 659.782 2929.36 652.539 2929.36 644.309V582.087H3018.99V646.778C3018.99 667.19 3014.38 684.721 3005.16 699.371C2996.11 713.856 2983.6 724.967 2967.63 732.704C2951.66 740.441 2933.39 744.309 2912.81 744.309Z" fill="white"/>
</svg>
